<?xml version="1.0" encoding="UTF-8" standalone="no"?>
<!-- Created with Inkscape (http://www.inkscape.org/) -->

<svg
   xmlns:dc="http://purl.org/dc/elements/1.1/"
   xmlns:cc="http://creativecommons.org/ns#"
   xmlns:rdf="http://www.w3.org/1999/02/22-rdf-syntax-ns#"
   xmlns:svg="http://www.w3.org/2000/svg"
   xmlns="http://www.w3.org/2000/svg"
   xmlns:sodipodi="http://sodipodi.sourceforge.net/DTD/sodipodi-0.dtd"
   xmlns:inkscape="http://www.inkscape.org/namespaces/inkscape"
   width="1000"
   height="720"
   viewBox="0 0 1000 720"
   version="1.1"
   id="svg3686"
   inkscape:version="0.92.5 (2060ec1f9f, 2020-04-08)"
   sodipodi:docname="map.svg">
  <defs
     id="defs3680" />
  <sodipodi:namedview
     id="base"
     pagecolor="#ffffff"
     bordercolor="#666666"
     borderopacity="1.0"
     inkscape:pageopacity="0.0"
     inkscape:pageshadow="2"
     inkscape:zoom="0.24072014"
     inkscape:cx="1089.4107"
     inkscape:cy="505.94894"
     inkscape:document-units="px"
     inkscape:current-layer="layer1"
     showgrid="true"
     units="px"
     inkscape:snap-nodes="false"
     inkscape:snap-bbox="true"
     inkscape:bbox-nodes="true"
     inkscape:window-width="1280"
     inkscape:window-height="656"
     inkscape:window-x="0"
     inkscape:window-y="27"
     inkscape:window-maximized="1">
    <inkscape:grid
       type="xygrid"
       id="grid4255" />
  </sodipodi:namedview>
  <metadata
     id="metadata3683">
    <rdf:RDF>
      <cc:Work
         rdf:about="">
        <dc:format>image/svg+xml</dc:format>
        <dc:type
           rdf:resource="http://purl.org/dc/dcmitype/StillImage" />
        <dc:title></dc:title>
      </cc:Work>
    </rdf:RDF>
  </metadata>
  <g
     inkscape:label="Layer 1"
     inkscape:groupmode="layer"
     id="layer1"
     transform="translate(0,-312.41665)">
    <g
       id="g4298"
       transform="translate(-11.506627,-121.12335)">
      <path
         style="fill:#ffffff;fill-opacity:0.15686275;stroke:#ffffff;stroke-width:1.7584151;stroke-miterlimit:4;stroke-dasharray:none"
         id="li-9"
         d="m 330.62984,1036.0559 4.8883,8.43 v 9.1963 c -4.8883,0 -7.82125,-0.7663 -8.79904,-0.7663 -0.9776,-0.7663 1.95541,-8.43 3.91074,-16.86 z"
         inkscape:connector-curvature="0" />
      <g
         transform="matrix(1.0000288,0,0,0.9801216,11.505474,402.56425)"
         id="g4285">
        <path
           inkscape:connector-curvature="0"
           d="m 273.77939,73.636888 c -0.12283,-0.04691 -0.20751,0.04691 -0.36456,0.183384 -0.20926,0.178993 -0.58909,0.636076 -0.9112,1.285178 -1.28864,2.59642 -2.85886,4.472455 -4.92058,16.156483 -0.12904,2.726238 1.14677,4.625167 1.27566,2.937559 0.12853,-1.687691 0.66911,-5.953815 1.1846,-7.25203 0.51577,-1.298257 1.13386,-1.03863 2.55144,0 1.4175,1.038537 1.57658,-0.10096 4.28277,-1.009854 2.70614,-0.908729 3.21784,-2.019522 2.18688,-2.019522 -1.03091,0 -3.93004,0.833843 -6.37862,0.183374 -2.44844,-0.649102 -0.56926,-4.14285 -0.18206,-6.609503 0.31412,-2.004082 2.29578,-2.512017 2.55146,-2.753916 -0.57978,-0.146086 -0.90724,-0.964231 -1.27575,-1.101546 z m 9.29441,10.464965 c 0,3.857648 0.54601,8.259772 2.18693,12.117347 0.61958,1.24846 4.76876,6.14891 8.38323,10.465 -1.41758,4.02453 -0.61853,4.15592 -2.5514,5.32428 -1.93306,1.16845 -1.58153,4.71057 1.64013,3.67199 2.73848,-0.88281 3.5602,-1.74945 4.92063,-4.03918 0.52798,0.7125 1.27574,1.66277 1.27574,1.83601 -1.76995,7.51662 -10.28737,4.59822 -16.40197,7.16026 0.41588,0.51301 4.68777,1.07658 2.73364,3.30469 -0.54719,1.10221 -4.92088,-0.73433 -4.37387,0.36721 0.43344,3.61513 0.57743,6.29947 9.84112,4.2227 1.49423,1.54946 1.29186,1.94766 2.00471,1.46881 0.68327,-0.45905 1.94832,-1.96639 3.09816,-3.48834 0.32069,0.0627 0.73435,-0.0176 0.91128,0.18338 -3.96877,4.66968 -6.68186,5.2471 -6.01415,12.85172 0.91826,0.53588 1.53162,0.56167 2.36923,0.3672 1.67531,-0.38913 2.22737,0.94567 3.64492,3.6719 1.41749,2.72633 0.75482,3.77031 -1.82245,3.12115 -2.33099,-0.58689 -2.6417,-0.79803 -3.82712,0 0.62041,2.48688 1.51369,4.71489 2.36912,6.42591 -1.09399,7.71523 11.29832,4.58989 12.93934,4.58989 9.94255,1.06909 7.36042,10.23996 13.66837,12.66821 1.73573,4.08549 -0.92386,8.26146 14.39728,12.1173 -15.0774,-2.2942 -14.03126,-6.05621 -16.76653,-10.4649 -5.39637,-4.51861 -4.73616,-10.28058 -8.56548,-11.9338 -4.92317,-2.2044 -10.74937,2.38739 -16.2197,1.2852 -2.18806,0 -4.91974,0 -6.56079,-1.10164 -1.64102,-0.5511 -1.88995,-4.55717 -2.73366,-3.85555 -11.55075,9.60686 -7.93255,17.96859 -5.46731,25.5199 -7.5112,-1.91782 -10.52773,-9.80168 -13.12156,-3.30475 -3.426,8.58121 4.92818,0.84095 1.82241,11.19944 -0.56466,1.88339 -3.09912,3.26084 -5.83176,-1.46882 -0.81125,-0.0176 -3.51844,-0.66406 -3.28037,-2.57032 0.23778,-1.9063 4.6722,-3.1022 2.55133,-6.7931 -2.75233,-4.78977 -4.37221,-5.97769 -4.00935,-8.81259 -0.54721,-0.55113 -2.18663,-1.10153 -2.73369,-1.10153 -11.33014,-0.35447 -13.3111,0.91706 -18.77111,2.57036 -2.86398,-0.77905 -10.02196,-1.46952 -12.75706,0.18339 -1.58315,0.79745 -4.07103,3.26811 -6.19626,6.42586 1.86052,1.92292 2.97113,2.65652 2.00463,2.7539 -1.2887,0.1294 -2.02677,0.24699 -1.64015,1.28519 0.32596,0.87498 -0.45228,0.29217 -2.18692,-0.73439 -2.71782,4.97033 -4.46483,10.53418 -2.18699,13.40252 2.22882,0.3435 5.90836,1.3075 8.92999,1.28518 0.38738,1.06534 2.8818,2.44664 1.09347,5.87508 1.09395,9.36855 -8.20039,26.98655 -9.29446,30.84421 -1.64106,4.40866 2.18921,13.21897 -2.18698,13.21897 -3.82923,0 -7.10546,-1.65237 -10.93456,-1.65237 -1.09412,0 -2.73369,0 -2.73369,1.10153 -0.54719,1.6533 2.18716,3.30394 1.64014,4.95719 0,1.10218 -2.73334,-0.55172 -3.28037,1.10153 -4.9233,8.26627 15.30822,4.953 15.85526,12.66813 2.18818,13.77721 -8.19628,15.9696 -16.94867,22.03159 -4.92331,3.30651 7.1083,3.85344 5.46733,7.71109 -1.64114,3.85762 -16.39987,8.8129 -20.22918,8.26175 -3.82918,0 -6.0123,-3.8548 -9.29442,-4.95704 -1.09404,-0.55114 1.09409,2.75358 0,3.30471 -3.28215,1.10221 -6.55932,-0.5517 -9.29441,1.10155 -1.09417,0.55113 0,2.2025 0,3.30471 -0.54719,1.10219 -1.64052,2.75347 -1.0935,3.85554 3.2822,6.062 15.31121,14.86476 10.38791,26.98872 -1.64109,3.85765 -5.46646,6.60731 -7.10751,10.46496 -2.18813,4.40867 4.92089,1.10011 4.37387,3.85549 l -10.38796,9.36343 c -1.09393,0 0.40227,-2.46314 -1.23873,-1.91195 -4.92318,8.1125 8.47604,2.64858 6.70606,14.02941 -0.5472,2.20441 -4.37352,2.20201 -4.9206,4.40635 -0.54714,1.6532 7.10722,13.21857 7.6543,13.76967 1.09412,1.1022 4.37386,-1.09982 4.37386,0.55058 0.54719,2.20435 -3.82742,4.40515 -3.28035,6.60944 1.09398,3.30647 6.01317,2.75256 7.65414,5.50789 7.65844,12.67502 -17.49804,11.55549 -12.57478,31.94576 2.73514,11.57282 15.85462,12.85089 16.94869,14.50415 7.65837,9.36847 -14.21834,13.7637 -8.20099,24.78551 1.09409,1.65322 4.37306,0 6.01403,1.65234 4.37622,2.75541 7.10461,15.41916 12.57489,20.93005 6.56436,7.16408 -4.38265,-15.43279 12.02807,-0.55052 1.09417,1.1022 -1.09637,3.30388 -0.54659,4.95716 1.09395,1.65317 18.58747,-5.50919 21.32256,-3.30479 1.64107,1.65325 0.54601,4.95622 2.18695,6.60942 2.18808,1.6533 34.99203,5.50577 32.80391,9.36342 -6.01734,10.47075 -16.94633,17.06973 -21.32257,25.88714 -1.6411,3.85761 -2.18662,15.97104 -2.73364,19.2776 l -7.65423,12.66817 c -1.09401,2.75549 -2.18721,5.50642 -1.64023,8.26183 0,1.65331 2.18697,1.65177 2.18697,2.75396 -0.5472,7.71522 -6.01441,14.86714 -5.46742,22.58236 0,19.28802 2.1844,2.75179 7.10756,6.60945 0.5472,0.55115 -3.28066,1.10093 -2.73365,2.20318 1.64101,3.30647 26.78899,-2.75393 28.4301,-2.75393 10.94059,-0.55113 1.086,9.91799 14.76174,2.75393 0.54716,-0.5511 -1.09404,-3.3044 0,-3.85555 1.64111,-1.1022 7.65546,-1.65203 5.46727,-2.20317 -3.28209,-0.5511 -6.55897,0.55114 -9.84114,0 -1.6411,-0.5511 7.64981,-15.42651 15.85526,-7.16026 1.09409,1.10225 -1.64048,3.30388 -1.09342,4.95708 0.54715,1.10229 2.73304,1.6527 3.82708,1.10164 1.09407,-0.55114 -0.54716,-4.40695 0,-3.30476 2.18811,1.10216 2.18571,4.95656 4.37384,6.05867 0,0 18.04188,-1.10154 18.5889,-1.10154 6.01734,1.65322 9.83792,7.70983 15.85531,9.91422 8.75244,2.75531 8.19963,-7.16148 10.93463,-4.95709 1.09404,1.10211 0,3.85489 1.09344,4.95709 2.18816,0.55114 4.37304,-2.20382 6.01409,-1.10163 2.18816,1.10219 3.27914,3.85466 5.46725,5.50796 2.7352,2.20441 -1.09398,4.40537 0,6.05859 0.54719,1.10224 2.18636,1.65237 3.28045,1.65237 1.09409,0 2.73338,-2.20343 3.2804,-1.65237 1.64111,2.2044 -4.37506,5.50673 -2.18693,7.71109 3.82921,3.85765 14.21499,-8.8114 14.21499,-11.01575 1.09409,-3.85765 -2.18863,-13.2202 1.09353,-11.01581 0,0.55111 -1.09353,1.10159 -1.09353,1.10159 4.37624,4.9598 19.68121,-3.8594 21.86933,3.30476 0.54719,1.10215 -2.73392,0.54991 -2.18693,1.65237 0.54719,1.10206 3.28008,1.10096 3.82716,2.20316 1.09399,1.1022 0,3.85476 1.09347,4.95705 2.18816,1.10211 20.77549,-3.85515 21.32255,-4.40629 1.09404,-1.10207 -1.0918,-3.85534 0.54659,-4.40629 2.18811,-1.65331 4.91948,1.09982 7.10748,-0.55059 2.18816,-1.10219 1.09232,-4.95642 3.2804,-6.05871 7.11134,-2.7554 19.67826,0.55234 27.33662,-1.65232 1.64105,-0.55111 -4.37743,-9.36317 2.18693,-9.91426 1.09409,0 -1.09408,3.30448 0,3.85554 2.73514,1.10216 6.0123,-1.65559 9.29446,-0.55052 1.641,0.55113 1.09216,4.40602 3.28035,4.95713 4.37616,0.5511 8.19868,-3.30481 12.57487,-3.30481 8.20545,0.55114 -5.47678,9.36075 12.02811,14.3206 1.09407,0 2.18693,-1.65182 2.18693,-2.75401 4.92322,-18.18592 -1.09022,-9.91127 -7.10756,-15.42208 -2.73511,-2.2044 4.92084,-8.81233 4.37392,-9.36343 0,-0.5511 -13.12162,-18.72685 -13.12162,-18.72685 0.54719,-8.81741 23.6891,-14.31839 28.61237,-18.17605 5.47026,-4.40869 2.18627,-10.46202 3.28034,-15.97287 0.54716,-1.10221 1.63966,-1.65234 2.7337,-1.65234 11.48754,2.75541 14.76145,6.06679 15.30843,-8.81262 0.54719,-14.32833 -23.14021,-22.57912 -31.89273,-28.64106 -3.82918,-3.30647 -4.37181,-9.36131 -8.20099,-13.21893 -4.12571,-4.15637 -9.26287,0.0644 -12.57477,-2.57036 -0.96067,-0.76431 1.33181,-1.93015 0.91118,-2.75392 -1.57476,-3.08496 -3.41658,-3.49669 -5.83176,-3.67199 -5.68784,-14.73578 -5.45431,-18.49323 -13.12162,-23.50028 1.09412,-6.06197 8.20185,-3.30058 6.56085,-11.01586 -0.54719,-3.30645 -4.37331,-4.03881 -5.4673,-4.58987 -3.86874,-2.53325 -7.45247,-6.48808 -10.20577,-10.46497 0.003,-1.24145 -0.075,-2.4666 0,-3.30479 0.19302,-2.1421 -1.90556,-3.05027 -3.28037,-4.03907 -1.37472,-0.98882 -1.61254,-1.56713 -1.82247,-2.20317 0.28034,-0.21057 0.85887,-0.47369 1.27577,-0.73439 1.47263,-0.92096 -1.89908,-2.47747 -0.18207,-3.6719 2.19571,-1.52809 3.86384,1.88534 5.46734,4.0391 2.18817,1.65327 2.18637,9.36447 3.28036,7.16021 4.37625,-8.81732 6.55349,-19.27632 20.22915,-21.48071 1.64105,0 7.65294,4.95849 9.84117,2.20317 1.64105,-1.65331 0,-4.95648 1.64017,-6.05872 1.6411,-1.65329 4.91971,1.09984 6.56081,-0.55057 3.28212,-2.20439 4.00663,-8.81198 8.9299,-9.91417 1.64113,-0.55114 2.73312,3.30531 3.82721,2.20318 2.73512,-2.2044 1.63863,-6.60829 4.37382,-8.81268 3.28212,-2.75532 9.29213,0.55228 13.66829,-1.65238 1.09409,-0.55113 0,-3.30435 1.09352,-3.85549 6.5643,-3.85754 15.8517,-4.40328 22.41602,-9.91427 2.18808,-1.65325 -7.65488,-3.85414 -6.56085,-6.60947 0.91995,-2.61181 1.84017,-5.19235 3.09821,-4.77352 1.71843,0.57221 2.50472,2.67683 3.71095,2.60686 1.20612,-0.0698 1.37077,-0.8671 2.00688,-0.9085 0.40492,-0.0308 0.71733,0.56692 1.02516,0.87201 0.44938,0.0527 0.81669,0.0763 1.27571,0.18336 4.44591,1.03852 4.50466,1.463 4.08407,3.44694 -0.42029,1.98395 -0.2698,2.84079 0.28998,2.97863 0.55996,0.13821 1.14589,-0.54471 1.82242,-0.918 2.02971,-1.11974 1.36928,1.08357 0.18206,3.30471 0.10572,0.12335 0.25884,0.24744 0.36414,0.3672 -0.53502,2.61687 1.61766,3.17244 3.64486,3.48845 1.07513,0.72152 2.1539,1.13747 3.09818,0.91793 3.28216,-0.5511 3.28356,-8.24423 7.28975,-21.48084 1.56126,-5.15836 3.94394,-8.40455 0.36411,-15.78924 -2.0682,-4.26722 -0.53902,-7.94698 -5.46728,-11.1994 -2.18817,-2.20435 -7.10643,-1.09983 -9.29445,-4.4063 -1.64106,-2.2044 5.02248,-3.68897 1.09341,-8.26186 -1.33602,-1.83082 -3.9994,-4.79917 -4.55606,-7.89461 -0.47385,-2.63476 -3.64579,-2.29372 -2.00471,-4.77349 7.56896,-7.85028 3.4344,-8.2521 5.46736,-16.52369 -0.54711,-1.10223 -2.73339,-0.54995 -3.28045,-2.20315 -0.54716,-2.75546 1.6411,-6.60801 0,-9.36342 -1.09404,-3.30661 -5.04861,-2.45758 -6.56078,-7.16034 -2.4616,-3.03101 -0.29611,-6.29229 0.72904,-8.44539 1.02538,-2.15305 1.81326,-3.19764 0.91119,-8.629 -0.67705,-4.07652 -7.07641,-7.33253 -12.0281,-11.56659 -4.59213,-3.92658 -9.84056,-2.75215 -10.93469,-6.05871 -0.95734,-2.6177 2.00347,-1.43702 1.27571,-7.52744 -0.33955,-2.84325 3.67527,-4.90379 5.64967,-7.16023 2.08773,-2.38622 2.95663,-7.0708 3.82706,-10.09784 0.87044,-3.02696 1.68598,-4.40454 1.27572,-7.71104 -1.09412,-5.51087 -7.65363,-21.29238 -8.74775,-30.10981 -1.07825,0.0807 0.93456,-3.49501 -0.72895,-4.0391 -1.66366,-0.54411 -4.93805,2.34601 -8.38319,0.3672 -4.36036,-2.58831 -6.81771,-4.47253 -8.20102,-5.87511 0.46335,-0.11627 1.21207,-0.36719 1.45798,-0.36719 1.41746,0 0.81359,-2.30153 1.45795,-1.65237 0.64445,0.6491 -0.97585,1.33895 0.18206,1.46878 1.15983,0.13026 2.35622,-1.60786 3.64482,-2.38678 1.2887,-0.77886 1.68984,0.25972 4.00946,0 2.31954,-0.25971 3.64486,0.18337 3.64486,0.18337 l -0.36455,-2.57026 -0.54653,-0.918 1.27571,-0.91802 c 0,0 0.23907,-0.0393 -1.82244,-1.46878 -2.06186,-1.42807 -1.91256,-1.81909 -5.64958,-5.32429 -3.73717,-3.50524 -4.36474,-2.76703 -3.46267,-1.46878 0.90202,1.29823 2.34697,2.5888 2.73364,4.40635 0.38694,1.81741 -0.21365,3.16564 -0.72898,2.38672 -0.51575,-0.77883 -1.64011,-1.28518 -1.64011,-1.28518 0,0 -0.29787,-1.15533 -1.45802,-1.28518 -1.15975,-0.12939 -2.48881,1.16463 -1.45798,2.20315 1.03108,1.03864 1.32176,4.00379 0.54662,5.69153 -0.30271,0.66069 -1.75009,1.17573 -3.28046,1.46875 -1.19782,-3.47359 7.45327,-3.06125 -3.46259,-10.46499 -3.87691,-2.62961 9.10713,-3.66417 5.46728,-4.95707 -4.63918,-8.01454 -7.42158,-7.43651 -6.74298,-4.22269 -4.37626,-1.10221 -10.9272,0.90114 -11.66364,4.40624 -2.34597,-4.51193 -6.55906,-7.15868 -9.84117,-9.91412 -1.64105,-2.20435 -5.46647,-1.10039 -7.10756,-3.30479 -2.18812,-3.30647 0.003,-11.0158 -3.82707,-11.0158 -0.27332,0 -0.54949,-0.0527 -0.729,-0.18338 -0.0662,0.0926 -0.11195,0.2992 -0.18207,0.3672 -1.41752,1.36314 -1.12286,0.5599 -2.73367,1.46873 -1.61116,0.90874 -1.31832,1.74687 -1.64024,3.30479 -0.32245,1.55789 -2.48732,1.40578 -2.55141,0.36719 -0.0641,-1.0388 -0.49183,-1.59859 -1.45795,-1.46878 -0.96646,0.13027 -2.50714,0.0667 -3.28043,-1.10153 -0.7734,-1.16867 -0.12681,-0.97366 -1.09344,0 -0.96651,0.97369 -1.91625,1.70423 -3.46264,2.93751 -1.54634,1.23337 -1.47813,-1.96764 -2.18689,-0.73434 -0.70876,1.23328 -0.0396,2.05094 -1.45795,2.57032 -1.41749,0.51946 -1.01797,1.34817 -1.2757,2.38676 -0.25751,1.03855 -1.58495,0.21365 -2.55145,1.83597 -0.0644,0.77891 0.6406,1.56542 2.18693,2.01958 1.54639,0.45383 -0.80068,0.40053 -2.73364,-0.18339 -1.93298,-0.58396 -0.38518,-1.02362 -1.09355,-2.38671 -0.70866,-1.36314 0.19126,-1.15345 1.09355,-2.38681 0.90214,-1.23328 0.66424,-0.46201 0.72889,-2.01953 0.0644,-1.55793 -0.0662,-1.42425 1.09356,-2.20317 1.15981,-0.77886 2.72988,-0.13942 4.9206,-0.91794 2.19066,-0.77915 0.23382,-0.24699 1.45789,-1.28519 1.22424,-1.03872 1.445,-0.48608 2.73373,-0.55056 1.28861,-0.0649 0.89825,-0.73439 2.1869,-0.73439 1.28864,0 2.034,0.38912 3.64483,0 1.61079,-0.38871 2.55874,-0.42117 4.55611,-0.55054 0.40669,-0.0308 0.71917,-0.62625 1.09352,-1.46882 -0.27857,0.005 -0.53146,-0.0763 -0.91122,0 -6.95091,-0.25751 -16.58366,-2.93808 -17.67765,-1.83598 -3.28222,3.85765 -3.82541,9.91229 -7.10758,13.76977 -3.25051,2.52764 -4.47885,3.61614 -8.01875,7.3439 -0.54719,0.55113 -9.07147,3.57863 -11.2991,3.85549 -5.44168,0.67613 -6.73771,-0.11454 -8.56551,0.3672 -4.92322,2.7554 -6.55928,16.52284 -9.29446,18.17604 -5.97786,-7.83164 -4.33585,3.19442 -11.48135,-8.26179 -4.37628,0 -7.46976,4.7738 -11.84587,4.2227 -1.01257,-0.9602 1.45166,-3.51309 -4.19154,-3.30474 -2.06963,0.0763 -1.4834,-5.11183 1.82237,-5.6915 4.26468,-0.7479 6.99709,-5.16537 10.75235,-8.44537 -0.22111,-7.98818 -1.26526,-10.99348 0.91122,-14.13696 -2.258,0.18952 -2.70292,1.46979 -5.28496,0.55053 -2.62792,-0.93426 -8.68781,5.36692 -9.47674,5.69151 -4.02374,-1.23465 -15.48904,-9.91447 -18.77114,-9.36341 -3.82928,0.55114 -7.65429,8.99622 -7.65429,8.99622 0,0 2.73396,-7.15846 2.18693,-10.465 -0.54714,-4.95986 -10.19124,0.92681 -14.21499,0.18336 -2.96138,-3.92383 3.95171,1.18683 7.10748,-6.24224 1.09417,-2.75542 1.6411,-6.05719 0,-8.81264 -0.54721,-1.10216 -3.2801,1.1022 -3.82712,0 -1.09403,-0.55115 1.09286,-1.835673 2.18693,-2.386767 0,0 1.09352,0.551136 1.09352,0 0,-1.65325 -0.54605,-3.854841 -2.18699,-4.957039 -1.36753,-0.826615 -1.90976,-1.280757 -4.5561,0 -1.61718,-2.478903 -3.98268,-3.938601 -6.19625,-3.671954 -2.95287,-0.888547 -3.94346,-2.079414 -5.10291,-3.488301 -2.18812,0.551135 -3.27922,3.30383 -5.46733,4.957122 -1.09405,0.551104 -1.09642,0 -0.54663,-1.652422 -7.11133,-1.10224 -14.21114,-4.956511 -21.32249,-6.05871 -1.64108,0 -8.19883,0.551146 -12.02812,0 z m -3.64491,9.730622 c -3.22167,0.130295 -7.42235,1.962011 -5.10279,4.039054 3.60815,1.557965 4.96104,2.314511 6.37852,0.367192 1.41749,-1.947276 1.94601,-4.536064 -1.27573,-4.406246 z m 202.83775,2.753875 c -2.57735,0.389124 -4.96104,-0.0041 -6.37854,2.203165 -1.41749,2.207025 -1.60117,3.761045 -0.18206,2.203165 1.41754,-1.557874 3.49779,-1.561695 1.82242,2.20317 -1.6752,3.76491 -0.58207,2.63714 1.09355,1.46882 1.67523,-1.16843 1.80031,-1.42425 2.18694,-2.20316 0.38694,-0.77896 0.53382,-0.0667 1.82247,1.10154 1.28856,1.16839 1.99162,2.07339 3.28036,2.20317 1.28865,0.1294 1.2757,-0.26323 1.2757,2.20316 0,2.46665 0.3242,2.41826 -1.09347,2.93756 -1.41753,0.51947 -1.9292,0.45672 -2.18694,-1.10163 -0.25752,-1.55778 0.53781,-1.29435 -0.36412,-2.20312 -0.90207,-0.90873 0.19567,-0.96397 -1.09347,-0.18338 -1.2887,0.77888 -1.6089,0.94413 -1.09347,-1.65242 0.51573,-2.59642 -0.27594,-2.36965 -1.82241,-0.55053 -1.54647,1.8175 -0.41721,1.21841 -0.54663,2.38673 -0.12852,1.16839 0.0662,0.1746 -1.09342,-0.73436 -1.15981,-0.90877 -3.26747,0.12942 -4.55611,0 -1.2887,-0.1294 -0.18207,0.4843 -0.18207,1.65234 0,1.16844 0.9204,0.918 1.82238,0.918 0.90211,0 1.4801,-0.047 1.09351,0.73437 -0.38693,0.77892 -0.4849,0.65847 0.54658,0.918 1.03091,0.2597 1.65305,-0.69364 0.36412,0.73442 -1.28865,1.42808 -2.74285,2.02879 -3.64483,2.93751 -0.90211,0.90879 0.29788,1.10159 1.45789,1.10159 1.15985,0 0.8137,0.17069 1.45799,1.46878 0.64436,1.29826 1.77148,2.20317 -0.54662,2.20317 -2.31959,0 -3.44048,-0.89951 -3.82708,0.91795 -0.38692,1.8175 0.55589,2.76321 1.45795,3.67199 4.51026,3.89462 5.21868,4.00764 6.37853,3.48829 1.15981,-0.51946 0.39572,-0.67138 0.91122,0.36721 0.51576,1.03863 1.91627,2.43129 3.46264,1.65238 1.54636,-0.77892 -1.95515,-2.93371 0.36413,-5.14074 2.31955,-2.20697 5.80585,-4.68824 8.38318,-4.03913 2.57727,0.6491 3.60447,2.13638 2.18699,3.30479 -1.41764,1.16837 2.08923,3.0411 2.73365,0.18338 0.64432,-2.85613 1.53717,-2.72787 -0.91127,-5.32432 -2.44845,-2.59647 -4.77871,-0.88802 -6.19631,-5.69152 -1.41748,-4.80336 3.25826,-2.16399 3.64484,-6.05862 0.38694,-3.89468 -1.96569,-3.95383 -5.83176,-3.30481 -3.86599,0.64916 -6.24964,0.52298 -6.37858,-2.20316 -0.12854,-2.726239 0.11626,-1.791406 1.27571,-2.570368 1.15975,-0.778869 1.48388,-2.592557 -1.09342,-2.203164 z m -196.64139,11.75023 c -0.6605,-0.0351 -2.07642,0.49543 -4.00941,1.46873 -1.15969,0.77902 -1.05297,0.8066 0.36415,2.75396 1.41753,1.9474 2.48516,0.33955 3.64495,-2.38671 0.57976,-1.36319 0.66043,-1.80357 0,-1.83598 z m 100.23424,1.83598 c -3.15671,0.72267 -3.73143,5.44707 -3.28039,6.24225 0.5157,0.90878 0.94246,0.52886 1.45789,0.918 2.44849,-0.90878 2.49807,-1.1351 2.36932,0.55053 -0.12905,1.68768 0.92952,3.81487 2.73359,2.38681 1.80417,-1.42808 2.8275,-1.43728 4.37384,-0.918 1.54643,0.51948 3.2088,1.35579 1.2757,-2.01956 -1.93292,-3.37544 -2.96164,-6.5111 -7.47196,-7.16031 -0.56403,-0.0807 -1.007,-0.10313 -1.45799,0 z m 88.20615,0.55052 c -0.94835,0.10314 -1.87485,1.20723 -2.55145,2.57037 -0.90202,1.81755 1.17432,0.56404 4.00944,-0.73438 0.25751,-0.5195 0.74044,-0.55993 -0.54662,-1.46879 -0.32157,-0.2277 -0.59506,-0.40185 -0.9112,-0.3672 z m -69.43498,35.98487 c -0.12163,-0.0649 -0.42863,0.0351 -0.91119,0.18338 -1.93307,0.58395 -6.02704,1.46494 -4.7384,3.67194 1.2887,2.20694 1.99365,2.36943 2.18695,0.55052 0.19302,-1.81749 0.67666,-2.41093 0.54657,-0.91797 -0.12854,1.49289 -0.15307,4.69618 1.45798,-0.36721 0.82157,-1.80118 1.82347,-2.92636 1.45795,-3.12115 z M 197.55042,175.0406 c 4.89694,-1.16836 7.73197,-0.90879 5.67011,0.2597 -2.06187,1.1684 -1.54638,3.24553 -3.47931,2.59642 -1.93301,-0.64909 -3.35055,-2.07715 -2.1908,-2.85608 z m 9.92267,-4.67356 c 8.76289,-0.51947 12.37118,0.51948 6.31443,0.64911 -6.05673,0.1294 -10.18035,0 -6.31443,-0.64911 z m 14.69078,-1.55792 c 4.38138,-0.51948 5.92776,-1.55784 -0.51574,-1.55784 -6.44327,0 -3.09276,1.94733 0.51574,1.55784 z m 7.21653,-2.20698 c 1.5463,0.90877 2.19072,2.46669 0.5157,1.81754 -1.67523,-0.64915 -2.19066,-2.20694 -0.5157,-1.81754 z m 4.76793,-1.03859 c 4.76814,0 6.18563,1.29826 2.44854,1.16848 -3.7371,-0.13025 -2.83503,0.12939 -3.09279,0.90877 -0.25751,0.77888 -2.4484,0.51943 -1.80421,-0.90877 0.64437,-1.42806 0.64437,-1.03858 2.44846,-1.16848 z m 9.66508,0 c 2.70617,-0.64911 3.47931,-0.90877 0.77315,-1.0385 -2.70625,-0.13027 -3.3505,-0.25971 -3.3505,0.64911 0,0.90869 1.15975,0.25971 2.57735,0.38912 z"
           id="de-2"
           style="fill:#ffffff;fill-opacity:0.91176471;stroke:#0e0e0e;stroke-width:1.7584151;stroke-miterlimit:4;stroke-dasharray:none;stroke-opacity:1" />
        <path
           inkscape:connector-curvature="0"
           d="m 578.65034,501.66631 c -0.48202,-0.0396 -1.02872,0.0995 -1.45821,0.18338 -0.57277,0.11143 -1.04802,0.32113 -1.45822,0.73439 -0.54719,1.10219 0.54716,17.07386 -0.54662,18.1761 -1.09407,1.65312 -4.92077,-2.20434 -7.10887,-0.55052 l -4.37466,14.32053 c -3.82915,1.10216 -7.65446,-3.85554 -11.48364,-3.85554 -2.18811,0 -1.6397,4.40612 -3.82776,4.95713 -11.48767,4.40872 -18.04279,-7.15792 -26.79509,-11.56658 h -0.54658 c 0.54719,1.65325 1.09364,3.30386 1.09364,4.95708 -0.54716,14.87937 -3.82386,11.56803 -15.31146,8.81262 -1.09404,0 -2.18705,0.54997 -2.73416,1.65242 -1.09405,5.51078 2.18925,11.56426 -3.28099,15.97289 -4.92342,3.85774 -28.07087,9.35865 -28.6178,18.17609 0,0 13.12399,18.1757 13.12399,18.72685 0.5472,0.55109 -7.10976,7.15902 -4.37467,9.36342 6.0174,5.51085 12.03215,-2.76384 7.10898,15.42215 0,1.10213 -1.09334,2.7539 -2.18742,2.7539 -17.50483,-4.95984 -3.82493,-13.76945 -12.03043,-14.32051 -4.37606,0 -8.20108,3.85586 -12.57722,3.30471 -2.18819,-0.55114 -1.64001,-4.40598 -3.28109,-4.95708 -3.2821,-1.10216 -6.56111,1.65268 -9.2962,0.55053 -1.09404,-0.55115 1.09412,-3.85551 0,-3.85551 -6.56433,0.55115 -0.54662,9.36321 -2.18733,9.91423 -7.65837,2.20443 -20.23058,-1.10312 -27.34189,1.65237 -2.18811,1.10219 -1.0929,4.95651 -3.28097,6.05866 -2.18807,1.65325 -4.92085,-1.10218 -7.10888,0.55053 -1.64119,0.55114 0.54715,3.30433 -0.54662,4.40635 -0.54715,0.55109 -19.13847,5.50848 -21.3266,4.40633 -1.09409,-1.1022 -1.7e-4,-3.8548 -1.09369,-4.95714 -0.54716,-1.1021 -3.28093,-1.10105 -3.82787,-2.20315 -0.54713,-1.10221 2.73435,-0.54996 2.18739,-1.65239 -2.18816,-7.16419 -17.49738,1.65515 -21.87355,-3.30471 0,0 1.0937,-0.55053 1.0937,-1.10154 -3.2822,-2.20439 -2.3e-4,7.15816 -1.0937,11.01577 0,2.2043 -10.38852,14.87348 -14.21776,11.01579 -2.18816,-2.20427 3.82836,-5.5067 2.18739,-7.71105 -0.54719,-0.55114 -2.18699,1.65237 -3.28106,1.65237 -1.09409,0 -2.73409,-0.54995 -3.28099,-1.65237 -1.09421,-1.65325 2.73502,-3.85427 0,-6.05872 -2.18819,-1.6532 -3.28018,-4.4057 -5.46839,-5.50786 -1.64097,-1.10221 -3.82702,1.65263 -6.01523,1.10154 -1.09404,-1.10211 -2.3e-4,-3.8549 -1.0937,-4.95709 -2.73505,-2.20439 -2.1843,7.71241 -10.93669,4.95709 -0.5472,-0.5511 -1.09356,-0.55053 -1.64058,-0.55053 v 0.55053 c 0,3.85768 7.10967,4.95414 4.92156,10.46504 -0.54716,1.10216 -2.73392,0.55053 -3.28098,1.10155 -0.5472,1.65334 -2.18689,6.05603 -3.82795,11.01583 l 2.73417,6.05872 v 6.60946 c 5.47041,0.55114 14.21759,1.65233 14.76474,1.65233 1.09409,1.10221 -1.64123,2.75343 -0.54662,3.85554 2.73518,3.30647 6.01384,5.50697 9.8431,7.16025 8.7524,4.40871 10.38775,-10.46552 16.40513,-9.36341 11.48755,1.65335 -0.54832,7.71013 3.28102,9.36341 8.75235,4.40871 1.09071,-1.1021 9.84306,0 4.37625,0.55115 8.74644,12.12006 17.49879,7.16031 l 7.10892,-14.8713 c 4.37615,-3.30655 23.51231,-1.10128 28.43548,-1.65242 8.20546,-0.55111 14.76176,-7.71105 22.96717,-7.71105 2.18816,0 -3.82764,2.75273 -4.37467,4.95714 -2.73522,11.57277 4.3731,3.85195 8.74938,10.465 1.09404,1.65329 -1.6411,3.85433 -0.54658,6.05867 0.54719,1.10219 2.18693,-1.10216 3.28102,0 10.39346,7.71525 18.40531,10.09653 32.6279,12.30097 17.42855,5.49297 15.78296,-0.75611 34.81533,3.30471 0.089,0.0969 0.27462,0.0872 0.36413,0.18338 0.022,-0.18689 -0.005,-0.36062 0,-0.55056 4.69768,1.8811 8.01724,-0.52298 10.02537,1.28512 4.55839,3.12138 7.10761,-0.82647 13.12407,4.40635 4.37621,0.5511 9.29473,-4.3151 13.3064,-0.18338 1.82399,2.29511 2.64214,-2.29499 5.46836,3.48831 1.09387,0.55113 0.54657,-4.22245 1.64052,-4.77349 5.05474,-0.54882 2.70624,-5.51187 9.11398,-5.50787 2.15812,-1.62063 0.71772,-4.60512 4.37466,-8.44549 1.45097,2.24213 1.70256,-1.05781 2.73421,-1.28518 1.71794,-0.37816 0.77401,4.63582 3.09876,-0.55053 1.09254,-2.43761 6.03458,-1.94964 8.38483,-1.65232 4.6325,0.58632 7.91142,-1.5102 10.20759,-1.2852 4.59253,0.44972 2.63845,4.26649 6.01523,2.38672 3.28217,-1.65325 -1.62965,-3.95881 7.83802,-7.52744 7.24817,2.24005 5.39626,-5.81401 17.86334,2.20317 1.641,-0.55115 -1.64023,-3.48751 -2.18733,-5.14068 -1.0707,-5.75285 1.92765,-8.60715 6.3798,-9.91427 0.24742,-0.047 0.48256,-0.13595 0.72907,-0.18337 0.1211,-0.15272 1.48844,-2.07928 3.64559,-5.14072 2.44875,-5.652 6.98631,-6.53555 9.84305,-5.50789 2.85692,1.02767 3.91503,1.90754 3.09878,-2.20317 -0.81624,-4.11069 -0.15271,-5.88323 1.27597,-7.52745 1.42838,-1.64424 -3.15037,1.59232 -4.37475,-1.28517 -1.2243,-2.87741 0.75891,-5.47212 2.18733,-7.5275 1.42837,-2.05533 -0.57685,-1.34519 -2.00509,-4.22268 -1.42843,-2.87747 0.4308,-2.56467 -0.18207,-6.05872 -0.61216,-3.4941 6.36599,1.57038 8.20257,-1.10159 1.83646,-2.67192 2.52207,-2.21936 1.09366,-5.50788 -1.42838,-3.28861 2.318,-3.18117 1.09372,-6.0587 -1.22438,-2.87741 -7.37264,-0.6986 -10.02538,-2.75396 -2.65276,-2.05533 -2.04062,-4.23083 0,-5.87508 2.04058,-1.6443 2.00742,-6.32194 7.10884,-3.85554 5.10151,2.46634 8.61876,3.6419 9.84305,2.20316 1.22439,-1.43873 6.5484,2.07741 8.38484,-0.18337 1.8366,-2.2609 3.98036,-2.7702 2.55196,-6.05871 -1.42843,-3.28853 0.18775,-2.58651 -3.28099,-5.87508 -3.46903,-3.28856 1.93965,-0.11194 2.5519,-4.22278 0.49886,-3.35043 -2.48271,-8.04587 0.9114,-9.17977 -0.0732,-0.12197 -0.10832,-0.24526 -0.18206,-0.36721 -6.5644,-7.16421 -12.02877,-14.31611 -16.95194,-22.58239 -4.37628,-7.16407 11.48745,-18.72241 0,-26.98872 -1.64114,-1.10216 -3.82742,2.20317 -5.46839,2.20317 -2.73509,-0.55114 -8.20121,-7.71162 -12.03042,-6.6095 -2.73501,1.10225 -3.82677,5.507 -7.1089,7.16025 -2.18811,0.55113 -4.9208,-0.55054 -7.10887,-0.55054 -14.77177,-1.65421 -27.33842,-13.77063 -43.20215,-13.77063 -2.7352,0 -4.92054,3.3048 -7.65582,3.3048 -1.09398,-0.55114 -1.7e-4,-3.30449 -1.09359,-3.85555 -1.23083,-0.62002 -2.74654,-1.34835 -4.19247,-1.46877 z M 684.7368,627.98078 c -9.34909,8.12847 -17.57297,14.33217 -23.33174,18.54328 9.45774,-4.53847 17.56003,-10.75863 23.33174,-18.54328 z"
           id="at-3"
           style="fill:#ffffff;fill-opacity:0.91176471;stroke:#0e0e0e;stroke-width:1.7584151;stroke-miterlimit:4;stroke-dasharray:none;stroke-opacity:1" />
        <path
           inkscape:connector-curvature="0"
           d="m 533.1127,361.33152 c -1.09404,2.7554 8.74892,4.95619 6.56086,6.60945 -6.56433,5.51098 -15.85172,6.05674 -22.41604,9.91425 -1.09409,0.55115 5.7e-4,3.30451 -1.09352,3.85552 -4.37614,2.20437 -10.38615,-1.10296 -13.66827,1.65237 -2.73519,2.20439 -1.63869,6.60827 -4.37383,8.81268 -1.09409,1.10218 -2.18605,-2.75433 -3.82722,-2.20318 -4.92325,1.10221 -5.64778,7.70983 -8.92988,9.9142 -1.64112,1.65325 -4.91971,-1.10162 -6.56081,0.55055 -1.64105,1.10224 8.6e-4,4.40545 -1.64019,6.0587 -2.18819,2.75532 -8.20011,-2.20316 -9.84117,-2.20316 -13.67564,2.20439 -15.85289,12.66338 -20.22913,21.48071 -1.09399,2.20431 -1.0922,-5.50691 -3.28036,-7.16021 -1.51686,-2.0375 -3.48743,-5.51468 -5.46734,-4.03909 -1.67695,1.24977 1.65545,2.75093 0.18206,3.6719 -0.46739,0.29217 -0.98273,0.50305 -1.27574,0.73443 0.2088,0.58397 0.42553,1.19999 1.82245,2.20312 1.39696,1.00314 3.4737,1.89696 3.28036,4.03909 -0.075,0.83821 0.003,2.06334 0,3.30477 2.81064,4.00133 6.34207,7.935 10.20578,10.46495 1.09399,0.55116 4.92024,1.28344 5.46729,4.58994 1.64102,7.71525 -5.46673,4.9538 -6.56085,11.0158 6.89743,5.52398 7.17487,8.76885 13.12162,23.50034 2.4152,0.17548 4.25699,0.58694 5.83176,3.6719 0.39133,0.7676 -1.61002,1.90788 -0.72897,2.57037 3.40265,2.55832 8.25573,-1.41361 12.39257,2.75391 3.82917,3.85769 4.37182,9.91249 8.20098,13.21901 7.65841,5.51086 26.97014,12.66213 30.79935,23.68393 h 0.54659 c 8.7524,4.40866 15.30231,15.97524 26.7899,11.56659 2.18817,-0.55115 1.63891,-4.95709 3.82707,-4.95709 3.82918,0 7.65213,4.95765 11.48136,3.85546 l 4.37392,-14.3205 c 2.18816,-1.65327 6.01347,2.20491 7.10751,0.55052 1.09412,-1.10221 5.7e-4,-17.07381 0.54659,-18.17601 1.64105,-1.65325 4.91943,-0.55053 7.10755,0.55052 1.09404,0.55116 -6.6e-4,3.30445 1.09347,3.85552 2.7352,0 4.9191,-3.30471 7.65424,-3.30471 15.86374,0 28.42214,12.11641 43.19179,13.76975 2.18821,0 4.9194,1.10273 7.10756,0.55053 3.28216,-1.65325 4.37238,-6.05806 7.10749,-7.16026 3.82927,-1.10219 9.29304,6.05838 12.02814,6.60947 1.64101,0 3.82624,-3.30541 5.46735,-2.20312 2.73509,2.20435 3.82711,4.40505 3.82711,6.60945 8.20535,-32.5141 26.23426,-4.94585 42.64514,-25.8871 1.09407,-1.6532 -0.54664,-4.40545 0.54657,-6.05867 1.6411,-2.2044 5.4665,-1.10035 7.10753,-3.30474 0,0 4.37383,-17.07417 4.37383,-17.62526 4.9233,-8.81737 18.0372,-15.97052 27.33666,-20.37919 -2.18816,-2.75549 -0.54545,-7.89319 -2.7337,-10.6486 -2.18813,-2.20439 -6.55949,-0.54995 -8.7477,-2.20315 -0.54716,-0.55112 -5.46699,-13.76946 -6.01401,-14.32052 -2.73518,-2.20439 -7.65252,-0.54996 -10.93464,-1.65232 -2.73506,-0.55115 -8.74661,-2.2023 -10.93468,-3.85555 -1.09409,-0.55114 -1.09286,-2.75423 -2.18693,-2.20317 -9.29957,3.8576 8.75633,4.9562 -7.10753,6.6095 -1.09399,0 -2.73303,-0.55057 -3.82716,-1.65242 -1.64102,-1.65325 -1.09255,-4.40542 -2.73365,-6.05872 -2.18812,-1.65317 -9.84235,-2.20219 -7.65419,-3.85545 7.11129,-6.61315 11.48495,1.65953 4.92054,-11.56659 0,-0.55114 -1.09313,-0.55114 -1.64017,0 -0.54719,1.10219 5.7e-4,3.3044 -1.09347,3.8555 -2.18813,1.10221 -4.91932,0 -7.10753,0 -2.18813,0 -4.91935,1.10278 -7.10748,0.55054 -4.92335,-1.65327 -14.21065,-9.91491 -22.41602,-8.81267 -3.28233,0.55112 8.74801,12.6675 8.20094,13.76974 -1.64103,3.30647 -7.10602,2.20207 -9.84116,4.40633 -1.64112,1.65327 -1.09221,5.50729 -3.28037,6.60947 -8.20539,3.30656 -11.48051,-11.01456 -13.12158,-13.21896 l -12.57485,-7.71109 c -1.09401,-7.16411 19.69028,-9.91039 4.92057,-17.07438 -2.73523,-1.65334 -14.76179,4.95704 -14.76179,4.95704 -1.64105,-1.6533 8.8e-4,-4.4054 -1.64017,-6.05862 -0.54716,-1.10219 -2.18607,6.2e-4 -3.82708,0.55057 -0.54719,0 -1.09299,1.6526 -2.18698,1.10154 -1.09407,-1.65325 -0.54543,-4.40547 -2.73365,-6.05867 -7.11129,-4.40879 -14.2103,0.55466 -22.9627,-6.60955 -6.01739,-4.40869 2.19221,-8.81197 -7.65432,-9.91426 -15.31675,-2.75532 3.97184,13.7227 -12.98483,11.29122 -1.09417,2.20434 -1.2292,4.131 -2.8704,4.131 -0.94245,0.21936 -2.02242,-0.19916 -3.09816,-0.91797 -2.02721,-0.31588 -4.17952,-0.87158 -3.50093,-3.47419 0.67857,-2.6026 1.33895,-4.80586 -0.69071,-3.68617 -0.67651,0.3729 -1.27671,1.03789 -1.82242,0.91799 -0.54601,-0.11972 -0.7321,-0.8384 -0.30095,-2.90062 0.43213,-2.0622 0.37246,-2.4867 -4.07313,-3.52529 -0.45928,-0.10745 -0.82679,-0.13198 -1.27575,-0.18338 -0.30709,-0.30532 -0.56171,-0.80857 -1.04763,-0.79641 -0.48609,0.0139 -0.81647,0.70359 -1.99221,0.76957 -1.17565,0.0659 -1.98744,-1.9614 -3.47319,-2.46493 -1.48576,-0.50364 -2.38678,2.02705 -3.32702,4.69639 z"
           id="cz-1"
           style="fill:#ffffff;fill-opacity:0.91176471;stroke:#000000;stroke-width:1.7584151;stroke-miterlimit:4;stroke-dasharray:none;stroke-opacity:1" />
        <path
           inkscape:connector-curvature="0"
           d="m 873.36241,436.23887 c -3.00859,0.17242 -5.60286,0.55059 -7.65424,1.10159 -1.64105,0 -1.63931,3.48804 -3.28039,4.0391 -2.1881,1.10221 -5.46648,-6.61358 -7.1075,1.10164 0,1.10211 3.28062,1.10088 2.73366,2.20316 -1.64111,2.75537 -4.37212,6.05867 -7.65428,6.05867 -4.37621,0 -7.1052,-6.05839 -11.48134,-6.60946 -2.18816,-0.55114 -3.27923,2.75365 -5.46731,3.30471 -2.18816,0 -4.55493,-2.20348 -6.74309,-1.65238 -7.65831,1.65326 -14.21478,18.72653 -14.76175,19.27765 -2.18817,1.1021 -4.37268,-3.30502 -6.56076,-2.75393 -2.73524,0.55115 -7.65429,4.95858 -7.65429,2.20312 0,-1.10219 3.28251,-11.56566 -0.54662,-13.21892 -2.18804,-1.10219 -4.91918,1.65274 -7.65429,1.10153 -1.09403,-0.55109 1.09383,-2.75333 0.54659,-3.85545 -0.54716,-0.55113 -2.73343,1.10185 -3.28045,0.55053 -2.73513,-2.7554 -2.73193,-7.89345 -6.01405,-10.09786 -5.47032,-3.85765 -12.57009,24.4222 -21.3226,17.25812 -1.64097,-1.65327 1.09443,-5.50699 -0.54659,-7.16026 -1.64106,-1.65325 -5.46672,1.10243 -6.56071,-0.55053 -9.29946,4.40866 -22.41341,11.56181 -27.33666,20.37919 0,0.5511 -4.37389,17.62521 -4.37389,17.62521 -1.641,2.2044 -5.46642,1.10039 -7.10747,3.30479 -1.09407,1.65322 0.54716,4.40541 -0.54662,6.05863 -16.41088,20.3902 -34.44002,-6.62701 -42.09837,25.88714 0.54714,7.16407 -7.65603,14.86827 -4.37388,20.37922 4.92327,8.26614 10.38433,15.41815 16.94869,22.58234 1.09404,-0.55115 2.73241,-1.10193 4.9206,-0.55058 9.84647,1.10229 17.48978,15.42092 27.88335,17.62532 6.56425,1.10219 53.03425,-7.15815 50.84612,-11.01579 -2.18816,-3.30647 -9.84506,-11.0134 -2.73372,-15.42215 7.65834,-5.51082 24.59971,-1.64909 30.61705,-7.71103 2.18804,-2.20441 -0.54776,-7.15873 1.09347,-9.91414 4.37611,-7.71526 14.21268,4.4066 18.58892,3.8555 13.67556,-2.20434 1.08874,-6.05569 9.84113,-11.56659 2.1882,-1.10216 5.6483,1.1019 7.83646,0.55052 6.01725,-2.75553 3.82545,-17.62293 7.10757,-22.03163 8.20534,-10.47059 20.22409,-0.54997 29.52351,-2.20313 5.47037,-0.55114 8.7448,-8.26182 14.21504,-8.26182 13.67575,0.55112 5.46173,11.01399 15.85522,14.3205 1.64111,1.10219 3.82602,-1.65207 6.01415,-2.20313 4.37615,-1.10229 9.22496,-0.99915 12.21029,-4.22279 0.0755,-0.0909 0.26631,-0.43168 0.36457,-0.55052 -0.14339,-0.001 -0.21454,-0.001 -0.36457,0 0,-4.40866 -3.64544,-9.17768 -2.5514,-13.03529 0.54719,-3.85764 5.46645,-4.95506 7.10747,-8.81263 1.64115,-3.30655 1.09321,-7.15822 1.64027,-11.01584 0.52447,-5.28125 4.79298,-12.5395 4.64723,-17.94653 -0.90321,-0.44146 -1.92718,-0.42641 -3.00705,-0.78027 -4.92326,-0.5511 -6.37586,-0.91706 -11.29911,-2.57035 -3.8293,-1.10221 -7.65256,-1.10036 -10.93464,-3.30476 -2.18821,-1.10219 -1.63934,-4.95622 -3.28036,-6.60951 -5.33358,-4.13316 -17.21726,-5.65729 -26.24324,-5.14063 z"
           id="sk-2"
           style="fill:#ffffff;fill-opacity:0.91176471;stroke:#0e0e0e;stroke-width:1.7584151;stroke-miterlimit:4;stroke-dasharray:none;stroke-opacity:1" />
        <path
           inkscape:connector-curvature="0"
           d="m 883.23875,498.17796 c -5.47033,0 -8.74748,7.71074 -14.2178,8.2618 -9.29942,1.65329 -21.32384,-8.26742 -29.5292,2.20316 -3.28213,4.40866 -1.09159,19.2762 -7.1089,22.03164 -2.18816,0.55109 -5.64983,-1.65385 -7.83799,-0.55052 -8.75245,5.51086 3.83255,9.36223 -9.84307,11.56654 -4.37623,0.55115 -14.21631,-11.57071 -18.59246,-3.85554 -1.64111,2.75541 1.09435,7.70981 -1.09369,9.91421 -6.01725,6.06197 -22.96459,2.20023 -30.62287,7.71109 -7.11132,4.40875 0.54602,12.11563 2.73418,15.42214 2.18813,3.8576 -44.29158,12.11798 -50.85586,11.01576 -10.39363,-2.2044 -18.04225,-16.52302 -27.88877,-17.62523 -2.18811,-0.55113 -3.08767,-0.2562 -5.15024,0.642 -2.06247,0.89828 -0.0138,6.18277 -0.50059,9.45577 -0.61222,4.11056 -6.02091,0.93422 -2.55186,4.22273 3.46905,3.28863 1.85255,2.58657 3.28098,5.87508 1.42838,3.28853 -0.71535,3.79781 -2.55193,6.05872 -1.83647,2.261 -7.16049,-1.25517 -8.38486,0.18338 -1.22428,1.43872 -4.74164,0.26321 -9.84306,-2.20317 -5.10146,-2.46639 -5.06825,2.21129 -7.10884,3.85554 -2.04062,1.64427 -2.65284,3.81975 0,5.87511 2.65276,2.05533 8.80102,-0.12318 10.02538,2.75393 1.22429,2.87754 -2.5221,2.77014 -1.09373,6.05871 1.42841,3.28852 0.74281,2.83595 -1.09368,5.50788 -1.83655,2.67197 -8.81474,-2.39248 -8.20253,1.10162 0.61248,3.49402 -1.24617,3.18122 0.18207,6.05872 1.42851,2.87744 3.43346,2.16733 2.00508,4.22269 -1.4284,2.05533 -3.41161,4.65004 -2.18733,7.52744 1.22439,2.87756 5.80312,-0.35884 4.37472,1.28519 -1.42843,1.64422 -2.09218,3.41675 -1.27593,7.52745 0.81626,4.11073 -0.24216,3.23088 -3.09879,2.20316 -2.85683,-1.02766 -7.3943,-0.14425 -9.84305,5.50788 -2.10634,2.98947 -3.46045,4.72269 -3.64557,4.95713 -0.25489,0.0992 -0.47272,0.27068 -0.7291,0.36719 0.17504,-0.0527 0.36721,0.047 0.54654,0 l 5.10387,-0.73433 c 0.80535,-0.061 1.56255,-0.18338 2.36963,-0.18338 0.27331,0 0.48257,0.27418 0.72913,0.73439 2.20473,3.10198 5.81377,17.54687 16.04051,25.88709 0.0139,0.0587 -0.0138,0.12507 0,0.18337 0.31807,0.022 0.67425,0.17069 1.09365,0.3672 0.96641,0.45494 2.18738,0.36719 2.18738,0.36719 l 2.91645,4.58994 1.09373,-0.73439 0.54659,1.10156 2.73418,-0.18339 0.54658,0.55053 h 1.27597 c 1.46263,2.39501 3.05583,3.09653 2.91649,6.42591 1.73059,0.66104 2.46139,1.73493 3.64559,2.5704 l 1.09359,-0.18338 0.18207,1.28517 c 4.16802,1.13911 7.91193,2.35353 9.47849,3.8556 -2.57225,2.84912 0.38825,0.54346 1.4583,1.65228 5.87524,6.09124 5.55486,6.86721 4.73917,8.2619 1.96548,0.49542 1.67646,1.96249 4.37476,1.10162 -0.68697,1.13023 -1.65536,0.83524 -1.45822,2.01953 1.03206,-0.67281 2.01467,-1.53841 3.0987,-2.01953 0.69698,1.4052 -0.8589,1.69318 1.09373,2.20317 0.12853,0.51946 -0.7605,0.43212 -1.27597,0.36719 -2.0201,1.17885 3.37903,2.71532 3.64554,-0.18338 1.6922,0.33782 4.06604,1.40299 6.01529,0.36719 2.03168,1.53616 3.88633,2.48705 5.10373,4.58989 3.68846,2.45165 7.61005,2.30659 11.66591,6.24227 0.67609,-1.7249 5.0033,-3.63425 7.29112,-1.83592 l 4.01015,0.36719 c 1.92893,-1.53644 4.087,-2.92571 7.10889,-0.55052 0.99681,-0.0623 2.10246,0.83357 2.91645,-0.18339 l 2.18737,0.55053 c 0.33473,0.0176 3.26936,-3.20942 3.28102,0.18338 0.80036,-0.68258 3.53801,1.45746 2.18733,-2.01956 1.28338,-0.29262 3.05732,0.005 2.00509,-2.38679 l 1.09369,0.55058 c 0.86838,-0.69982 2.98499,-0.79558 2.73417,-2.20316 0.86457,-0.46143 2.93765,-2.01268 2.00506,-3.12117 1.0253,-2.44387 1.21131,-1.58858 1.64052,-4.77352 l 2.00511,-0.55052 c 1.90389,0.90832 3.17287,2.20899 5.65063,2.20315 0.0618,-0.93846 -0.79894,-1.93569 0.18204,-2.75395 0.38168,0.5752 2.47137,0.93019 2.18734,-0.7344 0,0 0.38387,-0.002 0.54659,0 0.0465,-0.13561 0.13423,-0.23118 0.18206,-0.36719 1.78566,-1.91769 6.59534,1.06759 5.10388,-2.57032 -0.52861,-1.04827 4.11661,-1.01274 3.82786,-3.12115 -0.23031,-1.68234 0.40317,-2.55694 1.27597,-4.22274 2.49574,-2.05997 0.38869,3.50406 6.01518,2.75392 5.90882,-0.78773 2.96236,-2.37194 3.82782,-3.48831 2.53184,-3.26575 2.77938,-0.32069 4.0102,-1.28515 2.46165,-1.92888 4.37093,-5.07417 5.46835,-7.52747 2.26379,-5.06092 2.70736,-2.47898 4.37467,-3.48832 7.48167,-4.52935 3.10987,0.90655 10.02537,1.65229 3.75284,-1.62271 4.63662,-3.09509 6.74432,-3.85544 4.48983,-1.61993 3.79676,3.22697 5.83299,0.18336 1.17486,-1.75559 2.12171,1.40626 4.73919,-0.18336 1.85971,-1.12994 3.29782,1.6714 5.46838,2.3867 -0.12628,-0.38999 -0.18774,-0.88784 -0.54657,-1.46872 1.83505,-6.33347 20.80525,-4.57563 24.97224,-7.16031 0.30664,-0.3027 0.63417,-0.58333 0.72912,-0.91798 1.09399,-2.20434 -7.11235,-4.95607 2.73417,-6.60947 1.9145,-0.27549 3.80594,0.52767 5.65067,1.2852 0.92228,0.37859 1.85436,0.72003 2.73418,0.91798 0.87978,0.19829 1.7313,0.27552 2.5519,0 1.9488,-0.72329 3.44022,-2.02212 4.55693,-3.67199 4.83916,-7.14964 3.06391,-21.14528 5.28606,-26.07069 1.09415,-1.65326 3.82756,-1.65151 4.92157,-3.30476 l 6.01737,-19.27821 c 0.54721,-1.3777 1.27616,-2.61668 1.82281,-3.85554 0.27333,-0.61949 0.55822,-1.1992 0.72915,-1.83598 0.17103,-0.63678 0.18204,-1.33071 0.18204,-2.01956 0,-0.27552 -0.10832,-0.5623 -0.36411,-0.73434 -0.51286,-0.34439 -1.49256,-0.39002 -2.0051,-0.73445 -0.25576,-0.17241 -0.36412,-0.45905 -0.36412,-0.73438 0.13735,-1.23992 0.59256,-3.11252 1.27593,-5.32433 2.04993,-6.63507 5.96891,-16.15477 8.02028,-19.46119 0.54719,-0.55114 1.54963,-0.48309 2.36966,-0.55052 0.40975,-0.0351 0.82037,-0.22112 1.09363,-0.3672 0.27333,-0.1465 0.36413,-0.32069 0.36413,-0.73442 2.73514,-10.47068 -1.09789,-18.16987 10.93674,-29.74265 0.95731,-1.10224 1.87451,-1.80725 2.91647,-2.20318 0.52095,-0.19828 1.09184,-0.27506 1.64052,-0.36719 2.19488,-0.36939 4.66223,-0.15704 7.47341,-0.73443 0.70284,-0.14442 1.43525,-0.27551 2.18741,-0.55052 4.513,-2.06656 5.92211,-7.25489 8.20258,-11.5666 0.38035,-0.71855 0.83055,-1.36643 1.27593,-2.01954 0.44594,-0.65314 0.91122,-1.28485 1.45818,-1.836 -6.56422,-5.51088 2.18984,-4.40358 -4.9215,-9.36343 -1.09412,-0.55114 -2.73364,-1.65234 -4.37469,-1.65234 -2.18808,0.55115 -3.82713,3.30502 -6.01524,2.75398 -3.28216,-2.2044 -3.64437,-7.15913 -6.9266,-9.36343 -1.64102,-1.10229 -4.37415,1.6526 -6.01517,1.10154 -8.63758,-3.26308 -1.96014,-9.65767 -12.75958,-9.73062 -0.0522,0.0587 -0.13164,0.12594 -0.18207,0.18338 -1.54901,3.2153 -8.01875,3.48764 -12.39499,4.58989 -2.18812,0.55111 -4.37409,3.30538 -6.0152,2.20317 -10.39348,-3.30656 -2.1826,-13.76953 -15.85825,-14.32056 z"
           id="hu-3"
           style="fill:#ffffff;fill-opacity:0.91176471;stroke:#0e0e0e;stroke-width:1.7584151;stroke-miterlimit:4;stroke-dasharray:none;stroke-opacity:1" />
        <path
           inkscape:connector-curvature="0"
           d="m 183.38632,181.77416 c -0.6185,0.0139 -1.47503,0.12732 -2.36924,0.18338 -1.78836,0.11281 -3.98652,0.36719 -5.28506,0.36719 -0.61382,-0.047 -0.99229,1.53052 -1.27573,2.38677 -0.28297,0.85608 -0.10747,1.71344 0.36456,1.28519 0.47264,-0.42817 0.70248,-1.28519 1.4579,-1.28519 0.75558,0 3.81469,-0.66678 5.46738,-1.28518 1.65264,-0.6184 3.11155,-1.04048 2.73364,-1.46878 -0.0943,-0.10659 -0.47502,-0.19698 -1.09345,-0.18338 z m -28.61234,1.46883 c -0.27769,-0.11281 -0.70906,-0.0527 -1.27571,0.18337 -1.13337,0.47609 -1.47807,1.48962 -0.91122,2.20317 0.56694,0.71338 1.37758,1.24439 2.36914,1.10164 0.99159,-0.14305 1.93099,-1.33221 2.73364,-1.28519 0.80273,0.047 1.57486,1.27097 4.73839,0.36719 3.16357,-0.90386 4.99495,-0.63251 5.46729,-0.91807 0.47267,-0.28516 -0.54833,-0.82954 -3.09812,-0.73435 -2.54979,0.0952 -7.39254,0.25138 -9.65892,-0.36719 -0.022,-0.11852 -0.0869,-0.43739 -0.36458,-0.55053 z m -6.19634,1.28518 c -1.34128,0.0527 -3.35726,0.59681 -4.73829,0.91798 -1.84154,0.42861 -8.39065,1.49608 -9.47673,2.01954 -0.84996,0.4286 -1.9507,2.09444 -2.18699,2.57036 -0.23602,0.47552 1.2965,0.8842 2.00474,0.55053 0.70825,-0.33297 0.99327,-0.99963 2.55142,-1.28518 1.55823,-0.2856 3.46347,-0.15047 4.73834,-1.10155 1.27484,-0.95138 1.25005,-0.78136 3.28041,-0.73439 2.03036,0.047 2.92329,-1.27838 4.00935,-1.46877 1.08605,-0.19042 2.09177,-0.76172 0.91127,-1.28519 -0.29481,-0.13078 -0.64642,-0.20225 -1.09352,-0.18338 z m 47.38348,0.36719 c -13.8359,0.79116 -47.63164,8.85491 -51.93962,15.60577 -1.80679,2.18436 -2.84719,4.40187 -4.00931,6.42588 l -14.57952,13.21892 -2.55145,-0.3672 c -1.84782,1.93011 -2.3321,3.51212 -6.19633,2.20313 -2.44656,-0.82871 -2.69716,-2.09803 -1.64009,-4.95705 -1.63875,-0.0899 -2.73344,-1.65294 -3.28041,-1.10157 -7.11139,8.81726 -4.91888,26.43275 -8.20099,35.80131 -3.28222,8.26626 -9.837971,17.62165 -15.855271,24.23471 -2.188036,2.75541 -3.825589,6.05775 -6.560774,7.71106 -1.641094,1.10222 -4.920269,-0.55173 -5.467293,1.65237 -1.491458,2.27165 -1.826979,7.12713 8.38318,14.32045 2.720667,1.91682 7.762906,6.01375 12.028108,6.42591 2.369566,0.22944 5.46731,-0.7344 5.46731,-0.7344 0,0 1.75806,1.83068 -3.098137,2.38674 -4.730144,0.54174 -5.901606,-2.31948 -7.654191,-0.18339 -1.933669,2.35927 -4.153774,2.47627 -7.107559,3.30471 -2.029876,0.5693 -2.843724,-2.99326 -5.467346,-2.20315 -2.692191,0.81079 1.093511,3.30479 1.093511,3.30479 0,0 -6.197646,-2.22862 -7.654316,0.73434 -0.779664,1.58591 2.001673,3.30765 4.738347,4.58994 2.736717,1.28232 5.036626,2.12336 5.649621,5.32432 0.09299,0.48604 -5.599297,1.30698 -7.107519,-0.91799 -1.680542,-2.4792 -7.106688,-10.18945 -8.747702,-10.46505 -5.480151,1.14344 -8.922481,-0.48428 -12.392624,-0.55053 -2.931196,-0.0587 -5.44431,0.78711 -6.743004,3.67191 -0.891709,1.9806 2.429891,5.56635 4.37383,6.42594 2.04326,0.90344 7.567897,2.04436 8.200945,3.12112 1.638601,2.78699 5.284226,2.66232 6.925327,2.38676 1.093996,0 0.363685,-2.3861 1.457943,-3.48835 2.188164,-1.6533 4.3726,2.20286 6.560766,2.75393 1.77056,0.84981 2.292184,-1.14858 6.378527,2.20315 1.094122,1.10225 3.793779,0.66508 5.285101,1.65239 0.414141,2.07332 1.457068,2.75453 3.098173,2.20316 3.829223,0 -6.567959,-12.67023 6.560763,-8.81263 1.094038,0 -1.09435,2.75362 -0.546579,3.30476 6.564313,5.51082 8.198363,-7.71319 13.121533,-3.85554 1.6411,1.65325 -4.37471,4.95651 -2.73365,6.0587 12.58162,6.61298 1.63487,-1.65124 11.48145,-3.85555 1.64097,-0.55112 4.37167,15.42189 8.20094,15.97284 8.7524,1.65326 20.22531,1.09651 27.33662,10.46505 0.54714,1.10221 -2.18668,2.20252 -2.73366,3.30473 -1.09409,3.30645 -3.82684,6.05695 -4.37387,9.36341 0,1.10221 2.7339,0.54996 2.18694,1.65238 -0.54719,1.65325 -3.28015,2.20198 -3.82722,4.40633 -3.82916,13.77713 5.64494,9.91395 14.39739,10.46501 h 0.54657 c -1.09408,-1.65322 -1.64024,-3.3044 -1.64024,-3.85546 0.54721,-2.20434 4.37358,-2.20194 4.9206,-4.40635 1.64111,-11.57561 -10.67764,-5.12689 -7.10747,-13.95342 1.641,-0.55114 0.54657,1.83596 1.64014,1.83596 l 10.38796,-9.36343 c 0.54719,-2.75538 -6.562,0.55349 -4.37387,-3.85549 1.64105,-3.85765 5.46642,-6.60731 7.10751,-10.46496 4.92322,-12.12401 -7.10571,-20.92672 -10.38791,-26.98872 -0.54721,-1.10207 0.54653,-2.75335 1.0935,-3.85551 0,-1.10224 -1.09417,-2.7537 0,-3.30474 2.73509,-1.65331 6.01226,6.1e-4 9.29441,-1.10159 1.09409,-0.55109 -1.09404,-3.85576 0,-3.30471 3.28212,1.10228 5.46524,4.95703 9.29442,4.95703 3.82931,0.55114 18.58804,-4.40413 20.22918,-8.26173 1.64097,-3.85766 -10.39064,-4.40455 -5.46733,-7.71109 8.75239,-6.06193 19.13685,-8.2544 16.94867,-22.03156 -0.54719,-7.71516 -20.77856,-4.40186 -15.85526,-12.66813 0.54719,-1.6533 3.28037,6.2e-4 3.28037,-1.10159 0.54719,-1.65325 -2.18716,-3.30388 -1.64014,-4.95713 0,-1.10216 1.63957,-1.10159 2.73369,-1.10159 3.8291,0 7.10533,1.65243 10.93456,1.65243 4.37619,0 0.54605,-8.81031 2.18698,-13.21901 1.09407,-3.85765 10.38841,-21.47567 9.29446,-30.84417 -10.94066,5.51085 -12.02302,-14.87009 -21.32261,-17.07448 -1.02565,-0.20707 -2.57949,-0.29655 -4.55608,-0.18337 z m -67.43033,8.26187 c -1.6526,-0.33297 -8.94402,4.74015 -9.84113,5.69153 -0.33033,0.52299 0.0396,0.34088 0.18207,1.10155 0.14218,0.76105 1.05372,-0.73436 2.18698,-0.73436 1.13322,0 2.67297,-1.57147 3.09813,-2.57036 0.42553,-0.9988 0.99988,-1.13568 2.36921,-1.46877 1.36929,-0.33299 1.97158,-1.10834 2.91585,-0.91795 0.94439,0.1904 0.74146,-0.76847 -0.91119,-1.10164 z m -10.02344,8.2619 c -0.84992,-0.0947 -2.91751,3.25293 -5.4673,7.3438 -0.75545,1.23679 -1.54569,1.54559 -1.64019,4.58997 -0.0943,3.0444 1.4795,1.58391 3.46261,0.918 1.9832,-0.66604 1.49944,-1.34696 2.91597,-2.20317 1.41654,-0.85617 2.27467,-2.34672 2.36914,-3.48835 0.0943,-1.14164 0.6479,-3.08111 0.36455,-4.22274 -0.28341,-1.14169 -1.15477,-2.84236 -2.00474,-2.93751 z m 22.14271,9.088 c 0,0 -0.20619,1.72916 -0.2733,2.29494 -0.17506,1.4661 1.03208,4.59612 0.91117,5.69143 -0.4273,3.87296 -2.00426,2.56827 -2.55136,6.42591 0,2.4799 2.02377,1.98588 6.56076,2.93751 2.04971,0.42993 6.0087,-1.81009 7.65429,0 1.50641,1.65702 0.10521,1.74043 -2.55142,2.75401 -2.47824,0.94537 -3.46325,6.79095 -2.36921,10.64861 0.54719,1.92884 1.35936,3.46202 2.73364,3.48829 2.87385,0.0527 8.37543,0.47902 7.83651,1.10159 -1.51102,1.74609 0.20884,2.29534 0.54659,3.12115 0.34437,0.842 0.78501,3.69696 -1.27566,6.97671 -0.54254,0.86302 -1.33016,1.61513 -2.91598,2.93743 -3.17762,2.26536 -5.67655,3.37126 -6.92529,4.40633 -2.18066,1.80763 -3.03666,3.03956 -3.46259,4.40635 -0.67964,2.18084 -2.14855,2.36293 -5.10287,2.7539 -1.5728,0.20795 -2.64561,0.0716 -3.2804,-0.91794 -1.12005,-1.74633 -3.06969,-1.85619 -3.64489,-2.5704 -0.99729,-1.23824 -4.09959,-1.18612 -4.73829,-1.2851 -0.89088,-0.1382 -0.53847,-0.80292 -1.09352,-1.46883 l -7.10748,-3.12115 c -1.81369,-0.78071 7.47196,-4.95209 6.74305,-8.26176 -0.58267,-2.64352 -6.0155,-7.52533 -3.28041,-11.38298 3.43119,-2.19794 2.94117,1.96025 4.92059,1.46874 1.97943,-0.49193 7.26582,-4.8072 6.743,-7.16025 -0.46682,-0.45674 -1.03003,-1.82699 -3.09812,-1.65239 -2.7214,0.22989 -2.93755,-1.4582 -3.64488,-2.38676 -1.41463,-1.85712 0.26806,-4.33058 0.18206,-5.50788 -0.0895,-1.2316 -0.82011,-3.76373 -0.82011,-3.76373 z m 7.38085,34.9751 c -1.88872,0.047 -4.21231,2.8356 -4.9206,3.12115 -0.70823,0.2856 -1.39078,-0.0351 -2.0046,0.91799 -0.61359,0.95133 -0.59375,1.17646 -0.54664,1.65237 0.0465,0.47609 -2.36913,1.65237 -2.36913,1.65237 0,0 -11.69749,6.77271 -12.02815,7.34378 -0.3299,0.5705 0.54664,3.12115 0.54664,3.12115 0.28339,0.61867 0.52038,0.32596 1.27569,0.18338 0.75546,-0.14304 1.60706,0.0351 2.55147,0.3672 0.94434,0.33297 2.55886,1.29943 3.64483,2.20317 1.08601,0.90385 2.62577,2.77479 3.09822,3.48835 0.47264,0.71336 2.49169,0.14909 4.19154,-0.18338 1.69988,-0.33297 1.70818,-0.44328 2.36922,-2.20318 0.6613,-1.76008 0.46626,-2.54364 0.18205,-3.30475 -0.28339,-0.76093 1.16147,-1.38709 1.82242,-1.10158 0.66109,0.28559 1.5796,-0.068 2.00474,-0.73438 0.42511,-0.666 4.31325,-2.74721 4.73836,-2.93752 0.31806,-0.14304 0.77781,0.0821 2.36917,-0.9179 3.2757,-3.17565 4.0831,-6.7263 3.2804,-8.62908 -0.8027,-1.9027 -1.8705,-2.01956 -3.09817,-2.01956 -1.22771,0 -4.3132,-1.12891 -4.73834,-1.65239 -0.42511,-0.52354 -0.48082,-0.41457 -2.36923,-0.36719 z m -75.084538,48.83669 c -0.531489,0.12507 -1.283165,0.37771 -2.369219,0.73438 -2.171976,0.71328 -3.084697,0.76167 -3.462597,1.28518 -0.377723,0.52359 0.162323,1.72727 0.728949,2.20317 0.566365,0.47607 0.769574,0.0675 0.911231,-0.55054 0.142144,-0.61827 1.128345,-0.63246 2.733648,-0.91798 1.605479,-0.2856 1.930998,0.87794 2.733648,2.01957 0.802214,1.14156 -0.425102,1.66647 0,2.57033 0.425104,0.90376 0.432123,1.5305 1.093557,2.38672 0.661035,0.8563 2.160392,0.54407 2.915838,0.73443 0.755499,0.1904 1.73464,0.94528 1.640225,1.46874 -0.04649,0.26189 -0.509903,0.33736 -0.911224,0.36719 0.73776,-0.0592 1.549495,0.12905 2.186927,0.36719 1.274876,0.47609 1.364331,1.12243 2.733694,1.83599 1.36928,0.7135 4.212258,-0.35361 4.920497,-0.73445 0.708601,-0.38036 0.182069,-1.65237 0.182069,-1.65237 l 1.640131,0.18338 v -0.91799 c 0,0 -2.936545,0.30489 -3.644876,-0.55053 -0.708239,-0.85608 -1.255574,-0.39439 -1.822418,-0.91798 -0.566978,-0.52356 -3.280314,-3.85551 -3.280314,-3.85551 -0.377723,-0.38036 -0.391764,-0.45555 -0.911317,-0.55053 -0.519781,-0.0946 -1.803334,-1.47624 -3.644835,-2.57032 -1.841553,-1.09417 -2.619283,-2.08801 -3.280366,-2.75391 -0.330344,-0.33255 -0.56233,-0.30841 -1.093513,-0.18339 z m 6.014056,12.30093 c -0.401415,0.0308 -0.857276,0 -1.093563,0 -0.472614,0 -1.093376,0.73434 -1.093376,0.73434 -0.01315,-0.0767 -0.121948,-0.20749 -0.546579,-0.18338 -0.849945,0.047 -0.223302,-0.81604 -1.640227,-1.10158 -1.416485,-0.28559 -0.938343,-0.98644 -1.457944,-1.65238 -0.519819,-0.66591 -1.161379,-2.14881 -1.822417,-2.38676 -0.66117,-0.23821 -2.173599,0.34614 -2.551455,-0.36719 -0.378162,-0.71387 -1.201915,-0.32027 -2.004699,-0.36721 -0.802651,-0.047 -0.582685,-0.3606 -3.462641,-0.55057 -2.880306,-0.1904 -3.895073,1.05477 -4.556111,2.38676 -0.660993,1.33182 0.824237,2.74717 2.004744,2.93756 1.18042,0.19041 2.524913,-1.21757 3.28036,-1.836 0.755404,-0.61832 0.864553,0.48309 0.911232,1.10158 0.0465,0.6181 0.830815,-0.11454 1.822416,0.55056 0.991558,0.66591 0.904519,2.3601 1.093469,3.12112 0.189081,0.76124 1.674048,0.0877 2.004656,0.18339 0.330342,0.0949 -0.308849,1.42173 2.004698,1.46878 2.313677,0.047 4.111352,-1.02733 5.102826,-1.83599 0.992033,-0.80862 -0.202685,-1.08132 0.364562,-1.65238 0.283401,-0.28558 0.902413,-0.49134 1.640225,-0.55053 z m -33.168435,16.89087 c -1.435965,0.0684 -2.915009,0.36718 -4.556068,0.91799 l 1.093426,2.20317 c -1.094039,14.32817 10.383539,4.95502 18.58887,8.81262 1.094126,0.55114 -1.093951,2.75344 0,3.85551 6.564406,4.40861 12.025826,-3.30262 16.401982,-7.16027 3.495891,-1.71067 2.462346,-4.41554 -1.822417,-3.48835 -2.407037,0.52065 -3.826856,-1.74397 -4.373877,-2.01951 -2.494861,-1.25672 -4.736811,3.6719 -7.472038,3.6719 -7.127308,-1.23681 -4.114512,-2.39459 -9.112178,-4.0391 -4.180622,-1.3757 -7.311782,-2.82275 -8.7477,-2.75396 z"
           id="nl-3"
           style="fill:#ffffff;fill-opacity:0.91176471;stroke:#0e0e0e;stroke-width:1.7584151;stroke-miterlimit:4;stroke-dasharray:none;stroke-opacity:1" />
      </g>
      <circle
         r="13.161102"
         cy="725.57776"
         cx="146.8389"
         id="path3639"
         style="opacity:1;fill:#000000;fill-opacity:1;stroke:none;stroke-width:17.54813576;stroke-linecap:round;stroke-linejoin:round;stroke-miterlimit:4;stroke-dasharray:none;stroke-dashoffset:0;stroke-opacity:1" />
      <circle
         r="13.161102"
         style="opacity:1;fill:#000000;fill-opacity:1;stroke:none;stroke-width:17.54813576;stroke-linecap:round;stroke-linejoin:round;stroke-miterlimit:4;stroke-dasharray:none;stroke-dashoffset:0;stroke-opacity:1"
         id="circle3641"
         cx="102.98582"
         cy="692.28937" />
      <circle
         r="13.161102"
         cy="663.69196"
         cx="122.02205"
         id="circle3643"
         style="opacity:1;fill:#000000;fill-opacity:1;stroke:none;stroke-width:17.54813576;stroke-linecap:round;stroke-linejoin:round;stroke-miterlimit:4;stroke-dasharray:none;stroke-dashoffset:0;stroke-opacity:1" />
    </g>
  </g>
</svg>
